<svg xmlns="http://www.w3.org/2000/svg" width="16" height="16">
    <path d="M 2.5,0 C 1.123649,0 0,1.1236486 0,2.5 V 8 9.5 C 0,13.092351 2.907649,16 6.5,16 H 8 13.5 C 14.876351,16 16,14.876351 16,13.5 V 8 6.5 C 16,2.9076486 13.092351,0 9.5,0 H 8 Z M 6.8789062,1 H 8 9.5 C 12.555649,1 15,3.4443514 15,6.5 V 6.875 C 14.808267,6.6060042 14.60305,6.3433049 14.373047,6.0957031 13.526382,5.1842631 12.268688,4.423345 10.966797,4.140625 10.641323,4.069925 10.313508,4.0291075 9.9882812,4.0234375 9.0125992,4.0064375 8.064418,4.3047038 7.296875,5.0585938 c -0.350522,0.3442898 -0.645779,0.8543431 -0.75,1.3769531 -0.10422,0.52261 -0.01879,1.057365 0.3945312,1.453125 C 7.0725812,8.0142819 7.2680378,8.12076 7.4648438,8.15625 7.6605107,8.19155 7.857657,8.157 8,8 7.84118,7.85571 7.8062309,7.6542713 7.8417969,7.4570312 c 0.03581,-0.19857 0.1428262,-0.3930606 0.2695312,-0.5253906 0.397766,-0.41542 0.9365495,-0.5030075 1.4609375,-0.3984375 0.5243844,0.10458 1.0354374,0.4002732 1.3808594,0.7519531 0.755386,0.76906 1.053977,1.7199057 1.037109,2.6972657 -0.0056,0.3257901 -0.04641,0.6545491 -0.117187,0.9804691 -0.283116,1.30367 -1.046337,2.562376 -1.9589845,3.410156 C 9.6654075,14.604028 9.4005854,14.80665 9.1308594,15 H 8 6.5 C 3.444351,15 1,12.555649 1,9.5 V 9.1132812 c 0.192978,0.2738089 0.4032077,0.5396378 0.6367188,0.7910157 0.8466619,0.9114401 2.1043589,1.6723481 3.40625,1.9550781 1.301891,0.28272 2.6484839,0.0872 3.671875,-0.917969 0.3505209,-0.34429 0.6457778,-0.854343 0.75,-1.3769529 0.1042189,-0.5226 0.016841,-1.057365 -0.3964844,-1.453125 C 8.9371844,7.9857281 8.743682,7.87924 8.546875,7.84375 8.351278,7.80845 8.1540507,7.84315 8.0117188,8 8.1705307,8.14431 8.2054909,8.3457086 8.1699219,8.5429688 8.1341119,8.7415584 8.0271046,8.9360294 7.9003906,9.0683594 7.5026066,9.4837994 6.9638551,9.5713669 6.4394531,9.4667969 5.9150531,9.3622169 5.4040248,9.0665338 5.0585938,8.7148438 4.3031967,7.9457734 4.0046184,6.9949481 4.0214844,6.0175781 4.0270844,5.6917781 4.0678939,5.3630294 4.1386719,5.0371094 4.4217899,3.7334194 5.1830461,2.4747431 6.0957031,1.6269531 6.3443561,1.3959723 6.6091754,1.1933501 6.8789062,1 Z" style="marker:none" color="#000" overflow="visible" fill="#68676b"/>
</svg>
