/* XPM */
static char * button_apply0_xpm[] = {
"14 11 2 1",
" 	c None",
".	c #000000",
"....          ",
" .....        ",
"  ......      ",
"   .......    ",
"   .........  ",
"   ...........",
"   .........  ",
"   .......    ",
"  ......      ",
" .....        ",
"....          "};
