/* XPM */
static char * apply1_xpm[] = {
"21 16 77 1",
" 	c None",
".	c #A6A6A6",
"+	c #B5B5B5",
"@	c #707070",
"#	c #888888",
"$	c #C2C2C2",
"%	c #CECECE",
"&	c #424342",
"*	c #7D7E7D",
"=	c #B4B4B4",
"-	c #888988",
";	c #606060",
">	c #BEBEBE",
",	c #CCCCCC",
"'	c #2E2F2E",
")	c #343434",
"!	c #717271",
"~	c #BBBBBB",
"{	c #666766",
"]	c #5F605F",
"^	c #494A49",
"/	c #646464",
"(	c #C0C0C0",
"_	c #D2D2D2",
":	c #2A2A2A",
"<	c #272727",
"[	c #202020",
"}	c #6B6B6B",
"|	c #C9C9C9",
"1	c #727372",
"2	c #4E4F4E",
"3	c #1B1B1B",
"4	c #2B2B2B",
"5	c #C7C7C7",
"6	c #DBDBDB",
"7	c #282828",
"8	c #171717",
"9	c #131313",
"0	c #1C1C1C",
"a	c #707170",
"b	c #474747",
"c	c #0B0B0B",
"d	c #252525",
"e	c #1E1E1E",
"f	c #0C0C0C",
"g	c #060606",
"h	c #191919",
"i	c #686968",
"j	c #595959",
"k	c #0D0D0D",
"l	c #010101",
"m	c #212121",
"n	c #6D6E6D",
"o	c #3A3B3A",
"p	c #181918",
"q	c #020202",
"r	c #434443",
"s	c #1D1D1D",
"t	c #0A0A0A",
"u	c #171817",
"v	c #000000",
"w	c #3E3F3E",
"x	c #121212",
"y	c #040404",
"z	c #797979",
"A	c #AAAAAA",
"B	c #6C6C6C",
"C	c #B3B3B3",
"D	c #898A89",
"E	c #949494",
"F	c #7C7C7C",
"G	c #9D9D9D",
"H	c #A3A3A3",
"I	c #8F908F",
"J	c #757575",
"K	c #7F7F7F",
"L	c #989898",
"       .+        @#$%",
"      &*=       -;@>,",
"     ')!~      {]^/(_",
"    :<[}|     1234;56",
"   7890}|    ab7cd;56",
"  [efgh}|   ij<klm;56",
"nopgqgh}|  arstqlm;56",
"noulvgh}|  awxyvlm;56",
"nopgqgh}|  arstqlm;56",
"  [efgh}|   ij<klm;56",
"   7890}|    ab7cd;56",
"    :<[}|     1234;56",
"     ')!~      {]^/(_",
"      &zA       -;BC(",
"       DE        @FGH",
"        I        JKLG"};
