/* XPM */
static char * apply1_xpm[] = {
"21 16 81 1",
" 	c None",
".	c #FFFFFF",
"+	c #F9F9F9",
"@	c #EBEBEB",
"#	c #EEEEEE",
"$	c #F6F6F6",
"%	c #FCFCFC",
"&	c #F0F0F0",
"*	c #E5E5E5",
"=	c #E0E0E0",
"-	c #787978",
";	c #989898",
">	c #C7C7C7",
",	c #BFBFBF",
"'	c #A6A7A6",
")	c #858585",
"!	c #646464",
"~	c #464646",
"{	c #2E2F2E",
"]	c #343434",
"^	c #717271",
"/	c #BBBBBB",
"(	c #666766",
"_	c #5F605F",
":	c #494A49",
"<	c #2D2D2D",
"[	c #070707",
"}	c #2A2A2A",
"|	c #272727",
"1	c #202020",
"2	c #6B6B6B",
"3	c #C9C9C9",
"4	c #727372",
"5	c #4E4F4E",
"6	c #1B1B1B",
"7	c #2B2B2B",
"8	c #262626",
"9	c #060606",
"0	c #282828",
"a	c #171717",
"b	c #131313",
"c	c #1C1C1C",
"d	c #707170",
"e	c #474747",
"f	c #0B0B0B",
"g	c #252525",
"h	c #F8F8F8",
"i	c #1E1E1E",
"j	c #0C0C0C",
"k	c #191919",
"l	c #686968",
"m	c #595959",
"n	c #0D0D0D",
"o	c #010101",
"p	c #212121",
"q	c #E8E8E8",
"r	c #636463",
"s	c #181918",
"t	c #020202",
"u	c #434443",
"v	c #1D1D1D",
"w	c #0A0A0A",
"x	c #5D5E5D",
"y	c #171817",
"z	c #000000",
"A	c #3E3F3E",
"B	c #121212",
"C	c #040404",
"D	c #F7F7F7",
"E	c #2F302F",
"F	c #585858",
"G	c #848484",
"H	c #4C4C4C",
"I	c #454545",
"J	c #E4E4E4",
"K	c #4A4A4A",
"L	c #0F0F0F",
"M	c #151515",
"N	c #080808",
"O	c #111111",
"P	c #0B0C0B",
".....................",
"......+@#$%.....+&@*=",
"..     -;>      ,')!~",
"..    {]^/      (_:<[",
"..   }|123     456789",
"..  0abc23    de0fg89",
".h 1ij9k23   lm|nop89",
".qrs9t9k23  duvwtop89",
".*xyoz9k23  dABCzop89",
".qrs9t9k23  duvwtop89",
".h 1ij9k23   lm|nop89",
"..  0abc23    de0fg89",
"..   }|123     456789",
"..    {]^/      (_:<[",
".D     EFG      H(Ig9",
".JKzzzt[LMNzzzzzNOP9o"};
