/* XPM */
static char * apply0_xpm[] = {
"21 16 77 1",
" 	c None",
".	c #9D9D9D",
"+	c #989898",
"@	c #7F7F7F",
"#	c #757575",
"$	c #8F908F",
"%	c #A3A3A3",
"&	c #7C7C7C",
"*	c #707070",
"=	c #949494",
"-	c #898A89",
";	c #C0C0C0",
">	c #B3B3B3",
",	c #6C6C6C",
"'	c #606060",
")	c #888988",
"!	c #AAAAAA",
"~	c #797979",
"{	c #424342",
"]	c #D2D2D2",
"^	c #646464",
"/	c #494A49",
"(	c #5F605F",
"_	c #666766",
":	c #BBBBBB",
"<	c #717271",
"[	c #343434",
"}	c #2E2F2E",
"|	c #DBDBDB",
"1	c #C7C7C7",
"2	c #2B2B2B",
"3	c #1B1B1B",
"4	c #4E4F4E",
"5	c #727372",
"6	c #C9C9C9",
"7	c #6B6B6B",
"8	c #202020",
"9	c #272727",
"0	c #2A2A2A",
"a	c #252525",
"b	c #0B0B0B",
"c	c #282828",
"d	c #474747",
"e	c #707170",
"f	c #1C1C1C",
"g	c #131313",
"h	c #171717",
"i	c #212121",
"j	c #010101",
"k	c #0D0D0D",
"l	c #595959",
"m	c #686968",
"n	c #191919",
"o	c #060606",
"p	c #0C0C0C",
"q	c #1E1E1E",
"r	c #020202",
"s	c #0A0A0A",
"t	c #1D1D1D",
"u	c #434443",
"v	c #181918",
"w	c #3A3B3A",
"x	c #6D6E6D",
"y	c #000000",
"z	c #040404",
"A	c #121212",
"B	c #3E3F3E",
"C	c #171817",
"D	c #CCCCCC",
"E	c #BEBEBE",
"F	c #B4B4B4",
"G	c #7D7E7D",
"H	c #CECECE",
"I	c #C2C2C2",
"J	c #888888",
"K	c #B5B5B5",
"L	c #A6A6A6",
".+@#        $        ",
"%.&*        =-       ",
";>,')       !~{      ",
"];^/(_      :<[}     ",
"|1'2345     67890    ",
"|1'abcde    67fghc   ",
"|1'ijk9lm   67nopq8  ",
"|1'ijrstue  67norovwx",
"|1'ijyzABe  67noyjCwx",
"|1'ijrstue  67norovwx",
"|1'ijk9lm   67nopq8  ",
"|1'abcde    67fghc   ",
"|1'2345     67890    ",
"];^/(_      :<[}     ",
"DE*')       FG{      ",
"HIJ*        KL       "};
