<?xml version="1.0" encoding="UTF-8" standalone="no"?>
<!-- Created with Inkscape (http://www.inkscape.org/) -->
<svg
   xmlns:svg="http://www.w3.org/2000/svg"
   xmlns="http://www.w3.org/2000/svg"
   xmlns:xlink="http://www.w3.org/1999/xlink"
   version="1.0"
   width="48"
   height="48"
   id="svg2">
  <defs
     id="defs3">
    <linearGradient
       id="linearGradient6455">
      <stop
         style="stop-color:#fdb245;stop-opacity:1"
         offset="0"
         id="stop6457" />
      <stop
         style="stop-color:#f57900;stop-opacity:1"
         offset="1"
         id="stop6459" />
    </linearGradient>
    <linearGradient
       id="linearGradient6121">
      <stop
         style="stop-color:#000000;stop-opacity:1"
         offset="0"
         id="stop6123" />
      <stop
         style="stop-color:#000000;stop-opacity:0"
         offset="1"
         id="stop6125" />
    </linearGradient>
    <linearGradient
       id="linearGradient9543">
      <stop
         style="stop-color:#ffffff;stop-opacity:1"
         offset="0"
         id="stop9545" />
      <stop
         style="stop-color:#ffffff;stop-opacity:0"
         offset="1"
         id="stop9547" />
    </linearGradient>
    <linearGradient
       id="linearGradient8955">
      <stop
         style="stop-color:#729fcf;stop-opacity:1"
         offset="0"
         id="stop8957" />
      <stop
         style="stop-color:#3465a4;stop-opacity:1"
         offset="1"
         id="stop8959" />
    </linearGradient>
    <linearGradient
       id="linearGradient5048">
      <stop
         style="stop-color:#000000;stop-opacity:0"
         offset="0"
         id="stop5050" />
      <stop
         style="stop-color:#000000;stop-opacity:1"
         offset="0.5"
         id="stop5056" />
      <stop
         style="stop-color:#000000;stop-opacity:0"
         offset="1"
         id="stop5052" />
    </linearGradient>
    <linearGradient
       id="linearGradient5060">
      <stop
         style="stop-color:#000000;stop-opacity:1"
         offset="0"
         id="stop5062" />
      <stop
         style="stop-color:#000000;stop-opacity:0"
         offset="1"
         id="stop5064" />
    </linearGradient>
    <linearGradient
       x1="302.85715"
       y1="366.64789"
       x2="302.85715"
       y2="609.50507"
       id="linearGradient6495"
       xlink:href="#linearGradient5048"
       gradientUnits="userSpaceOnUse"
       gradientTransform="matrix(3.19282,0,0,1.96971,-2079.34,-872.885)" />
    <radialGradient
       cx="605.71429"
       cy="486.64789"
       r="117.14286"
       fx="605.71429"
       fy="486.64789"
       id="radialGradient6497"
       xlink:href="#linearGradient5060"
       gradientUnits="userSpaceOnUse"
       gradientTransform="matrix(2.25152,0,0,1.96971,-1511.42,-872.885)" />
    <radialGradient
       cx="605.71429"
       cy="486.64789"
       r="117.14286"
       fx="605.71429"
       fy="486.64789"
       id="radialGradient6499"
       xlink:href="#linearGradient5060"
       gradientUnits="userSpaceOnUse"
       gradientTransform="matrix(-2.25152,0,0,1.96971,-339.3,-872.026)" />
    <linearGradient
       x1="30.738016"
       y1="13.826383"
       x2="30.738016"
       y2="54.581482"
       id="linearGradient6501"
       xlink:href="#linearGradient8955"
       gradientUnits="userSpaceOnUse"
       gradientTransform="matrix(0.875487,0,0,0.875514,2.9144,2.12278)" />
    <linearGradient
       x1="19.904659"
       y1="63.610905"
       x2="19.904659"
       y2="39.999737"
       id="linearGradient6507"
       xlink:href="#linearGradient6121"
       gradientUnits="userSpaceOnUse"
       gradientTransform="translate(-1,-1)" />
    <linearGradient
       x1="19.249098"
       y1="-1.4776937"
       x2="19.249098"
       y2="20.913509"
       id="linearGradient6509"
       xlink:href="#linearGradient9543"
       gradientUnits="userSpaceOnUse"
       gradientTransform="matrix(0.95238,0,0,1.00044,0.19048,-7.8406e-3)" />
    <linearGradient
       x1="105.14954"
       y1="42.16304"
       x2="105.14954"
       y2="15.314641"
       id="linearGradient6175"
       xlink:href="#linearGradient6455"
       gradientUnits="userSpaceOnUse"
       gradientTransform="matrix(-0.884646,0,0,-0.875439,106.443,44.0198)" />
    <linearGradient
       x1="108.45969"
       y1="16.108488"
       x2="108.45969"
       y2="55.454102"
       id="linearGradient6194"
       xlink:href="#linearGradient6455"
       gradientUnits="userSpaceOnUse"
       gradientTransform="matrix(0.884646,0,0,0.875439,-58.4557,1.98455)" />
  </defs>
  <g
     id="layer1">
    <g
       transform="matrix(2.14053e-2,0,0,1.46073e-2,44.3076,42.2013)"
       style="opacity:0.458515"
       id="g6467">
      <rect
         width="1541.677"
         height="478.35718"
         x="-1696.2007"
         y="-150.69685"
         style="opacity:0.40206197;color:#000000;fill:url(#linearGradient6495) rgb(0, 0, 0);fill-opacity:1;fill-rule:nonzero;stroke:none;stroke-width:1;stroke-linecap:round;stroke-linejoin:miter;marker:none;stroke-miterlimit:4;stroke-dasharray:none;stroke-dashoffset:0;stroke-opacity:1;visibility:visible;display:inline;overflow:visible"
         id="rect6469" />
      <path
         d="M -154.52356,-150.68038 C -154.52356,-150.68038 -154.52356,327.65041 -154.52356,327.65041 C -38.575911,328.55086 125.78145,220.48075 125.78138,88.454235 C 125.78138,-43.572302 -3.6074711,-150.68036 -154.52356,-150.68038 z "
         style="opacity:0.40206197;color:#000000;fill:url(#radialGradient6497) rgb(0, 0, 0);fill-opacity:1;fill-rule:nonzero;stroke:none;stroke-width:1;stroke-linecap:round;stroke-linejoin:miter;marker:none;stroke-miterlimit:4;stroke-dasharray:none;stroke-dashoffset:0;stroke-opacity:1;visibility:visible;display:inline;overflow:visible"
         id="path6471" />
      <path
         d="M -1696.2007,-149.821 C -1696.2007,-149.821 -1696.2007,328.50979 -1696.2007,328.50979 C -1812.1484,329.41024 -1976.5056,221.34013 -1976.5056,89.31362 C -1976.5056,-42.712917 -1847.1168,-149.82098 -1696.2007,-149.821 z "
         style="opacity:0.40206197;color:#000000;fill:url(#radialGradient6499) rgb(0, 0, 0);fill-opacity:1;fill-rule:nonzero;stroke:none;stroke-width:1;stroke-linecap:round;stroke-linejoin:miter;marker:none;stroke-miterlimit:4;stroke-dasharray:none;stroke-dashoffset:0;stroke-opacity:1;visibility:visible;display:inline;overflow:visible"
         id="path6473" />
    </g>
    <path
       d="M 37.195133,2.5000001 C 41.237688,2.5000001 44.492165,5.7490466 44.492165,9.784857 L 44.492165,43.441161 L 10.79703,43.493427 C 6.75448,43.493427 3.5,40.244381 3.5,36.20857 L 3.5,2.5034132 L 37.195133,2.5000001 z "
       style="color:#000000;fill:url(#linearGradient6501) rgb(0, 0, 0);fill-opacity:1;fill-rule:evenodd;stroke:#204a87;stroke-width:1px;stroke-linecap:butt;stroke-linejoin:miter;marker:none;stroke-miterlimit:4;stroke-dashoffset:0;stroke-opacity:1;visibility:visible;display:inline;overflow:visible"
       id="path6475" />
    <path
       d="M 28.9375,7.5 C 25.043075,7.5572209 21.171604,9.14725 18.0625,13.03125 C 14.88186,17.004614 17.05889,22.868902 19.84375,24.46875 C 22.095546,25.512234 24.827058,23.414225 24.363113,23.464729 C 21.775762,23.746382 20.995402,23.330048 20.519653,21.751038 C 20.020198,18.082237 22.484691,14.936086 25.90625,14.5625 C 31.684601,13.931586 36.194192,19.660794 36.65625,25.0625 C 37.307908,32.680729 31.391287,40.289034 24.40625,42.46875 L 44.5,42.494048 L 44.5,15 C 43.22273,13.550851 41.756058,12.221069 40.0625,11.09375 C 36.767418,8.900374 32.831925,7.4427791 28.9375,7.5 z "
       style="opacity:1;color:#000000;fill:none;fill-opacity:1;fill-rule:evenodd;stroke:#ffffff;stroke-width:1px;stroke-linecap:butt;stroke-linejoin:miter;marker:none;stroke-miterlimit:4;stroke-dasharray:none;stroke-dashoffset:0;stroke-opacity:0.42792801;visibility:visible;display:inline;overflow:visible"
       id="path6183" />
    <path
       d="M 28.924467,8.5059512 C 25.030042,8.5631722 21.158571,10.153201 18.049467,14.037201 C 14.86883,18.010565 17.13484,23.593055 19.919706,25.192903 C 22.171502,26.236387 24.146606,24.509166 24.439069,23.40281 C 23.631503,23.773452 21.026864,23.802065 20.551115,22.223055 C 20.05166,18.554254 22.471658,15.942037 25.893217,15.568451 C 31.671568,14.937537 36.181159,20.666746 36.643217,26.068452 C 37.294875,33.686681 31.378254,41.294986 24.393217,43.474702 L 44.486967,43.5 L 44.486967,16.005951 C 43.209697,14.556802 41.743025,13.22702 40.049467,12.099701 C 36.754385,9.906325 32.818892,8.4487302 28.924467,8.5059512 z "
       style="color:#000000;fill:url(#linearGradient6194) rgb(0, 0, 0);fill-opacity:1;fill-rule:evenodd;stroke:#ce5c00;stroke-width:1px;stroke-linecap:butt;stroke-linejoin:miter;marker:none;stroke-miterlimit:4;stroke-dasharray:none;stroke-dashoffset:0;stroke-opacity:1;visibility:visible;display:inline;overflow:visible"
       id="path6190" />
    <path
       d="M 19.0625,36.498374 C 22.956925,36.441153 26.828396,34.851124 29.9375,30.967124 C 33.118139,26.99376 30.852122,21.411271 28.067261,19.811423 C 25.815465,18.767939 23.840361,20.49516 23.547898,21.601516 C 24.355464,21.230874 27.004598,20.668326 27.480347,22.247336 C 27.979802,25.916137 25.515309,29.062288 22.09375,29.435874 C 16.3154,30.066788 11.80581,24.33758 11.34375,18.935874 C 10.69209,11.317645 16.60871,4.70934 23.59375,2.529624 L 3.5,2.504326 L 3.5,28.998374 C 4.77727,30.447523 6.24394,31.777305 7.9375,32.904624 C 11.23258,35.098 15.16808,36.555595 19.0625,36.498374 z "
       style="opacity:1;color:#000000;fill:none;fill-opacity:1;fill-rule:evenodd;stroke:#ffffff;stroke-width:1px;stroke-linecap:butt;stroke-linejoin:miter;marker:none;stroke-miterlimit:4;stroke-dasharray:none;stroke-dashoffset:0;stroke-opacity:0.46846798;visibility:visible;display:inline;overflow:visible"
       id="path6188" />
    <path
       d="M 28.999189,9.499907 C 25.384475,9.553904 21.584978,10.964268 18.773142,14.686473 C 16.51461,17.676236 17.66771,23.953583 21.886792,24.613818 C 17.16489,22.936952 19.537707,15.066692 26.582032,14.512902 C 32.480868,14.049164 37.2211,20.975511 37.649971,26.072863 C 38.254825,33.261849 33.584659,39.54962 28.662049,42.498373 L 43.43959,42.486282 L 43.44394,16.577326 C 42.258409,15.209828 40.897077,13.954972 39.325156,12.891171 C 36.266737,10.821378 32.613905,9.44591 28.999189,9.499907 z "
       style="color:#000000;fill:none;fill-opacity:1;fill-rule:evenodd;stroke:#ffffff;stroke-width:1px;stroke-linecap:butt;stroke-linejoin:miter;marker:none;stroke-miterlimit:4;stroke-dasharray:none;stroke-dashoffset:0;stroke-opacity:0.30630601;visibility:visible;display:inline;overflow:visible"
       id="path6192" />
    <path
       d="M 19.0625,37.498374 C 22.956925,37.441153 26.828396,35.851124 29.9375,31.967124 C 33.118139,27.99376 30.852122,22.411271 28.067261,20.811423 C 25.815465,19.767939 23.840361,21.49516 23.547898,22.601516 C 24.355464,22.230874 26.969991,22.053946 27.44574,23.632956 C 27.945195,27.301757 25.515309,30.062288 22.09375,30.435874 C 16.3154,31.066788 11.80581,25.33758 11.34375,19.935874 C 10.69209,12.317645 16.60871,4.70934 23.59375,2.529624 L 3.5,2.504326 L 3.5,29.998374 C 4.77727,31.447523 6.24394,32.777305 7.9375,33.904624 C 11.23258,36.098 15.16808,37.555595 19.0625,37.498374 z "
       style="color:#000000;fill:url(#linearGradient6175) rgb(0, 0, 0);fill-opacity:1;fill-rule:evenodd;stroke:#ce5c00;stroke-width:1px;stroke-linecap:butt;stroke-linejoin:miter;marker:none;stroke-miterlimit:4;stroke-dasharray:none;stroke-dashoffset:0;stroke-opacity:1;visibility:visible;display:inline;overflow:visible"
       id="path6167" />
    <path
       d="M 18.94475,36.496839 C 22.559464,36.442842 26.358961,35.032478 29.170797,31.310273 C 31.429331,28.32051 30.602525,22.448559 26.40816,21.33349 C 30.650512,22.95103 28.524884,31.226685 21.361907,31.483844 C 15.4487,31.696723 10.72284,25.021235 10.29397,19.923883 C 9.68911,12.734897 14.35928,6.447126 19.28189,3.498373 L 4.50435,3.510464 L 4.5,29.41942 C 5.68553,30.786918 7.04686,32.041774 8.61878,33.105575 C 11.6772,35.175368 15.33003,36.550836 18.94475,36.496839 z "
       style="color:#000000;fill:none;fill-opacity:1;fill-rule:evenodd;stroke:#ffffff;stroke-width:1px;stroke-linecap:butt;stroke-linejoin:miter;marker:none;stroke-miterlimit:4;stroke-dasharray:none;stroke-dashoffset:0;stroke-opacity:0.30630601;visibility:visible;display:inline;overflow:visible"
       id="path6169" />
    <path
       d="M 6.36686,3.5146706 L 37.70852,3.5146706 C 40.18502,3.5146706 43.5,6.4567154 43.5,8.9315672 L 43.5,41.347255 C 43.41416,42.79273 43.76669,42.469024 41.80522,42.469024 L 10.24786,42.508172 C 7.77136,42.508172 4.5197,39.795146 4.5197,36.664009 L 4.5197,4.7794085 C 4.5197,3.2699594 4.17528,3.5146706 6.36686,3.5146706 z "
       style="color:#000000;fill:none;fill-opacity:1;fill-rule:evenodd;stroke:#ffffff;stroke-width:1;stroke-linecap:butt;stroke-linejoin:miter;marker:none;stroke-miterlimit:4;stroke-dasharray:none;stroke-dashoffset:0;stroke-opacity:0.37387402;visibility:visible;display:inline;overflow:visible"
       id="path6489" />
    <path
       d="M 23.87195,34 C 16.03547,34 8.83089,35.003096 3,36.681592 L 3,36.766449 C 3,40.3062 6.56718,44 10.49085,44 L 43.999664,43.934753 C 45.029298,43.934753 45.021749,43.939344 45,42.204907 L 45,36.736318 C 39.131532,35.01915 31.807466,34 23.87195,34 z "
       style="opacity:0.65065499;color:#000000;fill:url(#linearGradient6507) rgb(0, 0, 0);fill-opacity:1;fill-rule:evenodd;stroke:none;stroke-width:1px;stroke-linecap:butt;stroke-linejoin:miter;marker:none;stroke-miterlimit:4;stroke-dasharray:none;stroke-dashoffset:0;stroke-opacity:1;visibility:visible;display:inline;overflow:visible"
       id="path6491" />
    <path
       d="M 4,3 L 4,15.797735 C 7.79486,16.964169 18.0978,18.553024 26.652439,17.808814 C 33.065012,17.250953 41.472665,14.916233 44,12.369542 L 44,9.524886 C 44,5.9083082 40.80981,3.0000001 36.865853,3 L 4,3 z "
       style="opacity:0.74347797;color:#000000;fill:url(#linearGradient6509) rgb(0, 0, 0);fill-opacity:1;fill-rule:evenodd;stroke:none;stroke-width:1px;stroke-linecap:butt;stroke-linejoin:miter;marker:none;stroke-miterlimit:4;stroke-dasharray:none;stroke-dashoffset:0;stroke-opacity:0.29411801;visibility:visible;display:inline;overflow:visible"
       id="path6511" />
  </g>
</svg>
