<?xml version="1.0" encoding="UTF-8" standalone="no"?>
<svg
   ns1:version="1"
   ns1:keywords="version control svn git"
   ns1:state="1"
   viewBox="0 0 16 16"
   preserveAspectRatio="xMidYMid meet"
   data-initial-state="1"
   svg:state="1"
   version="1.1"
   id="svg1"
   sodipodi:docname="git.svg"
   inkscape:version="1.4.2 (ebf0e940d0, 2025-05-08)"
   xmlns:inkscape="http://www.inkscape.org/namespaces/inkscape"
   xmlns:sodipodi="http://sodipodi.sourceforge.net/DTD/sodipodi-0.dtd"
   xmlns="http://www.w3.org/2000/svg"
   xmlns:svg="http://www.w3.org/2000/svg"
   xmlns:rdf="http://www.w3.org/1999/02/22-rdf-syntax-ns#"
   xmlns:cc="http://creativecommons.org/ns#"
   xmlns:dc="http://purl.org/dc/elements/1.1/"
   xmlns:ns1="https://www.gtk.org/grappa">
  <defs
     id="defs1" />
  <sodipodi:namedview
     id="namedview1"
     pagecolor="#ffffff"
     bordercolor="#000000"
     borderopacity="0.25"
     inkscape:showpageshadow="2"
     inkscape:pageopacity="0.0"
     inkscape:pagecheckerboard="0"
     inkscape:deskcolor="#d1d1d1"
     inkscape:zoom="72.5"
     inkscape:cx="7.9931034"
     inkscape:cy="8"
     inkscape:window-width="2560"
     inkscape:window-height="1371"
     inkscape:window-x="0"
     inkscape:window-y="0"
     inkscape:window-maximized="1"
     inkscape:current-layer="svg1" />
  <title
     id="title1">git</title>
  <style
     type="text/css"
     id="style1">
    .not-initial-state {
      display: none;
    }
  </style>
  <path
     d="M 1.49928784 6.95557499 L 6.95557499 1.49928784 C 7.53239489 0.92246753, 8.46760559 0.92246753, 9.04442596 1.49928784 L 14.5007153 6.95557499 C 15.0775318 7.53239489, 15.0775318 8.46760559, 14.5007153 9.04442596 L 9.04442596 14.5007153 C 8.46760559 15.0775318, 7.53239489 15.0775318, 6.95557499 14.5007153 L 1.49928784 9.04442596 C 0.92246753 8.46760559, 0.92246753 7.53239489, 1.49928784 6.95557499 Z"
     id="path2"
     ns1:states="0 1"
     stroke-width="1.6"
     stroke-linecap="round"
     stroke-linejoin="round"
     stroke="rgb(0,0,0)"
     ns1:stroke-width="0.460455 1.84182 2.76273"
     fill="none"
     class="foreground-stroke transparent-fill foreground-stroke"
     data-stroke-multiplier="0.92091" />
  <path
     d="M 7.50917435 4.50917435 L 7.5 9.5 M 5.69939756 2.69939733 L 9.7965517 6.7965517"
     id="path9"
     ns1:states="0 1"
     stroke-width="1.0"
     stroke-linecap="round"
     stroke-linejoin="round"
     stroke="rgb(0,0,0)"
     fill-rule="nonzero"
     fill="rgb(0,0,0)"
     class="foreground-stroke foreground-fill foreground-stroke"
     data-stroke-multiplier="0.5" />
  <path
     d="M 8.5 10.5 C 8.5 11.0522852, 8.05228519 11.5, 7.5 11.5 C 6.94771528 11.5, 6.5 11.0522852, 6.5 10.5 C 6.5 9.94771481, 6.94771528 9.5, 7.5 9.5 C 8.05228519 9.5, 8.5 9.94771481, 8.5 10.5 Z M 11.5 7.5 C 11.5 8.05228519, 11.0522852 8.5, 10.5 8.5 C 9.94771481 8.5, 9.5 8.05228519, 9.5 7.5 C 9.5 6.94771528, 9.94771481 6.5, 10.5 6.5 C 11.0522852 6.5, 11.5 6.94771528, 11.5 7.5 Z"
     id="circles"
     ns1:states="1"
     stroke-width="1.0"
     stroke-linecap="round"
     stroke-linejoin="round"
     stroke="rgb(0,0,0)"
     fill-rule="nonzero"
     fill="rgb(0,0,0)"
     class="foreground-stroke foreground-fill"
     data-stroke-multiplier="0.5" />
  <path
     d="M 8.5 10.5 C 8.5 11.0522852, 8.05228519 11.5, 7.5 11.5 C 6.94771528 11.5, 6.5 11.0522852, 6.5 10.5 C 6.5 9.94771481, 6.94771528 9.5, 7.5 9.5 C 8.05228519 9.5, 8.5 9.94771481, 8.5 10.5 Z M 11.5 7.5 C 11.5 8.05228519, 11.0522852 8.5, 10.5 8.5 C 9.94771481 8.5, 9.5 8.05228519, 9.5 7.5 C 9.5 6.94771528, 9.94771481 6.5, 10.5 6.5 C 11.0522852 6.5, 11.5 6.94771528, 11.5 7.5 Z"
     id="circles-force-outline"
     ns1:states="0"
     stroke-width="1.0"
     stroke-linecap="round"
     stroke-linejoin="round"
     stroke="rgb(0,0,0)"
     fill="none"
     class="foreground-stroke transparent-fill not-initial-state"
     data-stroke-multiplier="0.5" />
  <metadata
     id="metadata1">
    <rdf:RDF>
      <cc:Work
         rdf:about="">
        <dc:title>git</dc:title>
      </cc:Work>
    </rdf:RDF>
  </metadata>
</svg>
