<?xml version="1.0" encoding="UTF-8"?>
<svg xmlns="http://www.w3.org/2000/svg" xmlns:xlink="http://www.w3.org/1999/xlink" height="16px" viewBox="0 0 16 16" width="16px"><filter id="a" height="100%" width="100%" x="0%" y="0%"><feColorMatrix color-interpolation-filters="sRGB" values="0 0 0 0 1 0 0 0 0 1 0 0 0 0 1 0 0 0 1 0"/></filter><mask id="b"><g filter="url(#a)"><path d="m -1.6 -1.6 h 19.2 v 19.2 h -19.2 z" fill-opacity="0.5"/></g></mask><clipPath id="c"><path d="m 0 0 h 1600 v 1200 h -1600 z"/></clipPath><mask id="d"><g filter="url(#a)"><path d="m -1.6 -1.6 h 19.2 v 19.2 h -19.2 z" fill-opacity="0.7"/></g></mask><clipPath id="e"><path d="m 0 0 h 1600 v 1200 h -1600 z"/></clipPath><mask id="f"><g filter="url(#a)"><path d="m -1.6 -1.6 h 19.2 v 19.2 h -19.2 z" fill-opacity="0.35"/></g></mask><clipPath id="g"><path d="m 0 0 h 1600 v 1200 h -1600 z"/></clipPath><g mask="url(#b)"><g clip-path="url(#c)" transform="matrix(1 0 0 1 -21 -100)"><path d="m 550 182 c -0.351562 0.003906 -0.695312 0.101562 -1 0.28125 v 3.4375 c 0.304688 0.179688 0.648438 0.277344 1 0.28125 c 1.105469 0 2 -0.894531 2 -2 s -0.894531 -2 -2 -2 z m 0 5 c -0.339844 0 -0.679688 0.058594 -1 0.175781 v 6.824219 h 4 v -4 c 0 -1.65625 -1.34375 -3 -3 -3 z m 0 0"/></g></g><g mask="url(#d)"><g clip-path="url(#e)" transform="matrix(1 0 0 1 -21 -100)"><path d="m 569 182 v 4 c 1.105469 0 2 -0.894531 2 -2 s -0.894531 -2 -2 -2 z m 0 5 v 7 h 3 v -4 c 0 -1.65625 -1.34375 -3 -3 -3 z m 0 0"/></g></g><g mask="url(#f)"><g clip-path="url(#g)" transform="matrix(1 0 0 1 -21 -100)"><path d="m 573 182.269531 v 3.449219 c 0.613281 -0.355469 0.996094 -1.007812 1 -1.71875 c 0 -0.714844 -0.382812 -1.375 -1 -1.730469 z m 0 4.90625 v 6.824219 h 2 v -4 c 0 -1.269531 -0.800781 -2.402344 -2 -2.824219 z m 0 0"/></g></g><path d="m 3.46875 -0.0117188 c -1.664062 0 -3 1.3398438 -3 2.9999998 v 10 c 0 1.664063 1.335938 3 3 3 h 10 c 1.660156 0 3 -1.335937 3 -3 v -10 c 0 -1.660156 -1.339844 -2.9999998 -3 -2.9999998 z m 4.046875 2.9999998 h 5 c 0.027344 0.003907 0.058594 0.007813 0.085937 0.011719 c 0.039063 0.003906 0.082032 0.011719 0.121094 0.019531 c 0.050782 0.011719 0.105469 0.027344 0.15625 0.046875 c 0.039063 0.015625 0.078125 0.03125 0.113282 0.050782 c 0.066406 0.035156 0.128906 0.078124 0.183593 0.128906 c 0.015625 0.007812 0.03125 0.019531 0.046875 0.035156 c 0.0625 0.0625 0.113282 0.132812 0.15625 0.207031 c 0.046875 0.078125 0.078125 0.15625 0.101563 0.242188 c 0.023437 0.085937 0.035156 0.171875 0.035156 0.257812 v 5 c 0 0.554688 -0.449219 1 -1 1 c -0.554687 0 -1 -0.445312 -1 -1 v -2.585937 l -6.292969 6.292968 c -0.390625 0.390626 -1.023437 0.390626 -1.414062 0 c -0.390625 -0.390624 -0.390625 -1.023437 0 -1.414062 l 6.289062 -6.292969 h -2.582031 c -0.554687 0 -1 -0.449219 -1 -1 s 0.445313 -1 1 -1 z m 0 0" fill="#222222"/></svg>
